<?xml version="1.0" encoding="UTF-8" standalone="no"?>
<!DOCTYPE svg PUBLIC "-//W3C//DTD SVG 1.1//EN" "http://www.w3.org/Graphics/SVG/1.1/DTD/svg11.dtd">
<svg width="100%" height="100%" viewBox="0 0 750 563" version="1.1" xmlns="http://www.w3.org/2000/svg" xmlns:xlink="http://www.w3.org/1999/xlink" xml:space="preserve" xmlns:serif="http://www.serif.com/" style="fill-rule:evenodd;clip-rule:evenodd;stroke-linejoin:round;stroke-miterlimit:2;">
    <g transform="matrix(3.33333,0,0,3.33333,-374.996,-375)">
        <g transform="matrix(4.16667,0,0,4.16667,0,0)">
            <g transform="matrix(1,0,0,1,77.5487,38.438)">
                <path d="M0,17.624C-1.577,17.292 -5.097,16.674 -7.221,16.4C-7.76,16.329 -8.119,17.131 -7.617,17.197C-6.832,17.304 -6.05,17.418 -5.271,17.539C-4.511,17.658 -4.894,18.731 -5.814,18.594C-7.229,18.378 -8.653,18.188 -10.085,18.023C-10.729,18.963 -11.468,19.832 -12.29,20.616C-11.579,20.686 -10.871,20.764 -10.165,20.847C-13.46,24.509 -18.235,26.812 -23.549,26.812C-28.863,26.812 -33.639,24.508 -36.934,20.845C-35.026,20.621 -33.103,20.443 -31.167,20.315C-31.574,19.462 -31.842,18.531 -31.942,17.55C-35.092,17.774 -38.208,18.124 -41.284,18.594C-42.204,18.731 -42.586,17.658 -41.827,17.539C-41.047,17.418 -40.265,17.304 -39.48,17.197C-38.978,17.131 -39.337,16.329 -39.876,16.4C-42.001,16.674 -45.521,17.292 -47.097,17.624C-47.502,17.709 -48.012,17.216 -47.591,17.012C-47.423,16.931 -47.148,16.854 -46.903,16.626C-46.388,16.142 -46.427,16.057 -46.162,16.008C-41.401,15.098 -36.539,14.47 -31.595,14.142C-31.402,13.529 -31.139,12.947 -30.818,12.403C-34.235,12.605 -37.615,12.948 -40.95,13.427C-41.34,11.954 -41.549,10.407 -41.549,8.812C-41.549,-1.129 -33.49,-9.188 -23.549,-9.188C-13.608,-9.188 -5.549,-1.129 -5.549,8.812C-5.549,10.408 -5.757,11.956 -6.147,13.43C-6.708,13.35 -7.27,13.271 -7.834,13.199C-7.988,13.755 -8.172,14.299 -8.382,14.829C-5.875,15.146 -3.392,15.538 -0.935,16.008C-0.67,16.057 -0.709,16.142 -0.194,16.626C0.051,16.854 0.326,16.931 0.493,17.012C0.915,17.216 0.405,17.709 0,17.624M0.522,15.278C0.205,14.84 0.055,14.478 -0.252,14.42C-1.466,14.185 -2.687,13.968 -3.913,13.77C-3.514,12.183 -3.299,10.523 -3.299,8.812C-3.299,-2.372 -12.365,-11.438 -23.549,-11.438C-34.732,-11.438 -43.799,-2.372 -43.799,8.812C-43.799,10.523 -43.584,12.183 -43.185,13.77C-44.411,13.969 -45.632,14.185 -46.846,14.42C-47.153,14.478 -47.303,14.84 -47.619,15.278C-48.458,16.442 -50.549,16.478 -50.549,16.931C-50.549,17.59 -49.967,18.811 -49.705,18.953C-49.433,19.099 -49.071,19.057 -48.926,19.273C-48.492,19.914 -48.325,20.179 -47.912,20.269C-47.501,20.359 -45.476,19.664 -44.71,20.082C-43.929,20.507 -42.798,21.687 -42.1,21.57C-41.262,21.433 -40.421,21.305 -39.577,21.186C-35.873,25.976 -30.072,29.062 -23.549,29.062C-17.027,29.062 -11.225,25.978 -7.522,21.189C-6.678,21.308 -5.835,21.433 -4.997,21.57C-4.299,21.687 -3.169,20.507 -2.388,20.082C-1.622,19.664 0.403,20.359 0.815,20.269C1.227,20.179 1.395,19.914 1.829,19.273C1.973,19.057 2.336,19.099 2.608,18.953C2.869,18.811 3.451,17.59 3.451,16.931C3.451,16.478 1.36,16.442 0.522,15.278" style="fill:rgb(35,31,32);fill-rule:nonzero;"/>
            </g>
        </g>
        <g transform="matrix(4.16667,0,0,4.16667,0,0)">
            <g transform="matrix(1,0,0,1,44.3341,54.433)">
                <path d="M0,-12.619C-0.288,-12.518 -1.621,-12.265 -1.953,-12.247C-2.6,-12.22 -2.312,-13.228 -1.947,-13.749C-1.524,-14.276 -0.623,-14.088 -0.623,-14.088C-0.623,-14.088 0.684,-13.879 0.732,-13.323C0.771,-12.928 0.288,-12.723 0,-12.619M12.846,-20.061C8.868,-20.061 5.197,-17.059 2.932,-17.059C1.555,-17.059 0.442,-17.004 -0.088,-16.742C-2.225,-15.69 -6.297,-11.574 -6.297,-10.427C-6.297,-9.257 -3.419,-6.515 -2.333,-6.077C-2.121,-5.99 -1.035,-6.699 0.598,-6.491C2.181,-6.29 3.071,-5.519 3.523,-5.096C4.736,-6.384 6.349,-7.291 8.165,-7.617C7.595,-10.106 8.432,-11.872 9.314,-12.803C9.314,-14.944 10.809,-16.735 12.811,-17.191C13.142,-17.266 13.297,-16.839 13.024,-16.678C12.038,-16.094 11.294,-15.144 10.979,-14.015C11.405,-14.206 11.784,-14.314 12.168,-14.383C12.487,-14.44 12.643,-14.015 12.351,-13.858C10.498,-12.905 9.136,-10.485 9.865,-7.747C12.155,-7.747 13.952,-7.068 16.619,-6.847C18.085,-6.726 19.076,-7.104 19.713,-7.576C19.968,-7.759 20.269,-7.47 20.126,-7.217C19.615,-6.296 18.236,-5.294 16.537,-5.294C13.52,-5.294 12.488,-6.062 9.678,-6.062C5.95,-6.062 2.916,-3.04 2.916,0.688C2.916,4.416 5.938,7.442 9.666,7.442C17.743,7.442 24.291,0.894 24.291,-7.178C24.291,-13.258 20.37,-20.061 12.846,-20.061" style="fill:rgb(35,31,32);fill-rule:nonzero;"/>
            </g>
        </g>
    </g>
</svg>
